# xmcd
#
# Track frame offsets: 
#        150
#        25982
#        50574
#        75891
#        94470
#        121949
#        193989
#        220223
#        244765
#        285201
#
# Disc length: 4102 seconds
#
# Revision: 0
# Processed by: cddbd v1.5.2PL0 Copyright (c) Steve Scherf et al.
# Submitted via: ExactAudioCopy v1.0b3
#
DISCID=8610040a
DTITLE=Huong Lan, Truong Vu - Song Que 1 2 3
DYEAR=2001
DGENRE=
TTITLE0=Huong Lan - Song que 1
TTITLE1=Truong Vu - Gia tu
TTITLE2=Huong Lan, Hoai Nam - Song que 2
TTITLE3=Truong Vu - Hoa su nha nang
TTITLE4=Huong Lan - Song que 3
TTITLE5=Huong Lan, Chi Tam - Cung thuong sau nguyet ha
TTITLE6=Truong Vu - Vung ngoai o (Co hang xom)
TTITLE7=Huong Lan - Que ngoai
TTITLE8=Huong Lan, Thanh Huyen - Mai chi ve [tan co]
TTITLE9=Huong Lan - Duoi bong tre lang
EXTD=
EXTT0=
EXTT1=
EXTT2=
EXTT3=
EXTT4=
EXTT5=
EXTT6=
EXTT7=
EXTT8=
EXTT9=
PLAYORDER=
